<?xml version="1.0" standalone="no"?><!DOCTYPE svg PUBLIC "-//W3C//DTD SVG 1.1//EN" "http://www.w3.org/Graphics/SVG/1.1/DTD/svg11.dtd"><svg t="1666089318886" class="icon" viewBox="0 0 1024 1024" version="1.1" xmlns="http://www.w3.org/2000/svg" p-id="2766" xmlns:xlink="http://www.w3.org/1999/xlink" width="200" height="200"><path d="M810.666667 597.333333a42.666667 42.666667 0 0 1 42.666666 42.666667v128h128a42.666667 42.666667 0 0 1 0 85.333333h-128v128a42.666667 42.666667 0 0 1-85.333333 0v-128h-128a42.666667 42.666667 0 0 1 0-85.333333h128v-128a42.666667 42.666667 0 0 1 42.666667-42.666667z m149.333333-512a64 64 0 0 1 63.701333 57.856L1024 149.333333v491.946667a42.666667 42.666667 0 0 1-85.034667 4.992L938.666667 641.28V170.666667H85.333333v337.365333L205.226667 338.773333l3.114666-4.010666a64 64 0 0 1 97.322667-1.066667l258.688 296.277333 56.917333-27.776 4.608-1.92a42.666667 42.666667 0 0 1 32.853334 78.592l-71.637334 34.986667-5.632 2.432a64 64 0 0 1-70.656-17.877333L259.242667 410.197333 85.333333 655.616V853.333333h440.618667a42.666667 42.666667 0 0 1 42.368 37.674667l0.298667 4.992a42.666667 42.666667 0 0 1-37.674667 42.368l-4.992 0.298667H64a64 64 0 0 1-63.701333-57.856L0 874.666667v-725.333334a64 64 0 0 1 57.856-63.701333L64 85.333333h896zM725.333333 256a128 128 0 1 1 0 256 128 128 0 0 1 0-256z m0 85.333333a42.666667 42.666667 0 1 0 0 85.333334 42.666667 42.666667 0 0 0 0-85.333334z" p-id="2767"></path></svg>