<?xml version="1.0" standalone="no"?><!DOCTYPE svg PUBLIC "-//W3C//DTD SVG 1.1//EN" "http://www.w3.org/Graphics/SVG/1.1/DTD/svg11.dtd"><svg t="1666016188638" class="icon" viewBox="0 0 1028 1024" version="1.1" xmlns="http://www.w3.org/2000/svg" p-id="3474" xmlns:xlink="http://www.w3.org/1999/xlink" width="200.78125" height="200"><path d="M386.28158 940.13175a40.864119 40.864119 0 1 1 0 81.756794H81.756795A81.985246 81.985246 0 0 1 0 940.13175V81.728238A81.985246 81.985246 0 0 1 81.756795 0h735.754041a81.985246 81.985246 0 0 1 81.756794 81.756795v208.461265a40.864119 40.864119 0 1 1-81.756794 0v-208.461265H81.756795v858.403511zM265.573941 235.047216a40.864119 40.864119 0 0 1 0-81.756795h367.891298a40.864119 40.864119 0 0 1 0 81.756795z m0 163.513589a40.864119 40.864119 0 0 1 0-81.756795h114.453801a40.864119 40.864119 0 0 1 0 81.756795z m386.28158-44.976232a74.646267 74.646267 0 0 1 67.450069 16.362782l167.597146 167.597146a68.934999 68.934999 0 0 1 18.390282 65.394013l-20.446338 79.700739a30.355387 30.355387 0 0 0 8.167112 28.556337l110.370246 110.370245a81.442675 81.442675 0 0 1 0 116.481302L942.187806 999.471819a81.442675 81.442675 0 0 1-116.509858 0l-20.446338-20.446337-89.923907-89.923908a30.355387 30.355387 0 0 0-28.556338-8.167112l-75.617182 20.446337a76.445316 76.445316 0 0 1-73.589682-20.446337l-161.457534-161.457534a74.246478 74.246478 0 0 1-18.390281-73.589682l22.473838-87.896407a49.031232 49.031232 0 0 1 34.753063-36.780563 46.603943 46.603943 0 0 1 49.059788 12.250668l65.394013 65.394014 57.112676-14.278169 14.278168-57.112675-65.394013-65.394014a52.08676 52.08676 0 0 1-14.278169-51.087288 48.859894 48.859894 0 0 1 36.780563-34.753063z m10.223168 120.593414a70.676936 70.676936 0 0 1 18.390282 71.390845l-16.362782 67.450069a71.790633 71.790633 0 0 1-51.087288 51.087288l-67.450069 18.390282a76.673767 76.673767 0 0 1-71.390845-18.390282l-30.669506-30.669506-8.167113 32.697006 155.317921 155.317921 73.589682-18.390281a111.541055 111.541055 0 0 1 106.286689 28.556337l89.923907 89.923908 20.446338 20.446338 61.310457-61.310458-20.446338-20.446337-89.923907-89.923908a109.313661 109.313661 0 0 1-28.556338-106.286689l18.390282-71.390844-155.317921-155.317921-34.753063 8.167113z" p-id="3475"></path></svg>