<?xml version="1.0" standalone="no"?><!DOCTYPE svg PUBLIC "-//W3C//DTD SVG 1.1//EN" "http://www.w3.org/Graphics/SVG/1.1/DTD/svg11.dtd"><svg t="1666016479161" class="icon" viewBox="0 0 1024 1024" version="1.1" xmlns="http://www.w3.org/2000/svg" p-id="2405" xmlns:xlink="http://www.w3.org/1999/xlink" width="200" height="200"><path d="M422.4 312.32c-28.16 0-56.32 7.68-81.92 20.48-15.36 7.68-17.92 28.16-5.12 40.96l87.04 87.04-30.72 30.72-87.04-87.04c-5.12-5.12-10.24-7.68-17.92-7.68-10.24 0-17.92 5.12-23.04 15.36-33.28 66.56-23.04 151.04 33.28 207.36 35.84 35.84 79.36 51.2 125.44 51.2 20.48 0 40.96-2.56 58.88-10.24l184.32 184.32 17.92 17.92c10.24 10.24 25.6 10.24 35.84 0l17.92-17.92 35.84-35.84 17.92-17.92c10.24-10.24 10.24-25.6 0-35.84l-17.92-17.92-184.32-184.32c23.04-64 7.68-135.68-40.96-186.88-35.84-35.84-81.92-53.76-125.44-53.76z m117.76 222.72c-7.68 17.92-2.56 38.4 12.8 53.76l184.32 184.32-35.84 35.84-184.32-184.32c-10.24-10.24-23.04-15.36-35.84-15.36-5.12 0-10.24 0-17.92 2.56-12.8 5.12-28.16 7.68-43.52 7.68-33.28 0-66.56-12.8-89.6-38.4-30.72-30.72-43.52-71.68-35.84-112.64l58.88 58.88c10.24 10.24 23.04 15.36 35.84 15.36 12.8 0 25.6-5.12 35.84-15.36l30.72-30.72c20.48-20.48 20.48-53.76 0-71.68l-58.88-58.88c7.68-2.56 15.36-2.56 23.04-2.56 33.28 0 66.56 12.8 89.6 38.4 35.84 33.28 48.64 87.04 30.72 133.12z" p-id="2406"></path><path d="M896 153.6h-128v-76.8c0-12.8-12.8-25.6-25.6-25.6s-25.6 12.8-25.6 25.6v76.8h-409.6v-76.8c0-12.8-12.8-25.6-25.6-25.6s-25.6 12.8-25.6 25.6v76.8h-128c-15.36 0-25.6 10.24-25.6 25.6v768c0 15.36 10.24 25.6 25.6 25.6h768c15.36 0 25.6-10.24 25.6-25.6v-768c0-15.36-10.24-25.6-25.6-25.6z m-25.6 768h-716.8v-716.8h102.4v25.6c0 12.8 12.8 25.6 25.6 25.6s25.6-12.8 25.6-25.6v-25.6h409.6v25.6c0 12.8 12.8 25.6 25.6 25.6s25.6-12.8 25.6-25.6v-25.6h102.4v716.8z" p-id="2407"></path></svg>