<?xml version="1.0" standalone="no"?><!DOCTYPE svg PUBLIC "-//W3C//DTD SVG 1.1//EN" "http://www.w3.org/Graphics/SVG/1.1/DTD/svg11.dtd"><svg t="1666016489243" class="icon" viewBox="0 0 1024 1024" version="1.1" xmlns="http://www.w3.org/2000/svg" p-id="2551" xmlns:xlink="http://www.w3.org/1999/xlink" width="200" height="200"><path d="M512 102.4c12.8 0 23.04 0 35.84 2.56l10.24 56.32c5.12 28.16 25.6 51.2 51.2 58.88 12.8 5.12 28.16 10.24 40.96 17.92 10.24 5.12 23.04 7.68 35.84 7.68 15.36 0 30.72-5.12 43.52-12.8l46.08-33.28c17.92 15.36 35.84 30.72 48.64 48.64l-33.28 46.08c-15.36 23.04-17.92 53.76-5.12 79.36 7.68 12.8 12.8 25.6 17.92 40.96 10.24 28.16 30.72 46.08 58.88 51.2l56.32 10.24c0 12.8 2.56 23.04 2.56 35.84 0 12.8 0 23.04-2.56 35.84l-56.32 10.24c-28.16 5.12-51.2 25.6-58.88 51.2-5.12 12.8-10.24 28.16-17.92 40.96-12.8 25.6-10.24 56.32 5.12 79.36l33.28 46.08c-15.36 17.92-30.72 35.84-48.64 48.64l-46.08-33.28c-12.8-10.24-28.16-12.8-43.52-12.8-12.8 0-23.04 2.56-35.84 7.68-12.8 7.68-25.6 12.8-40.96 17.92-28.16 10.24-46.08 30.72-51.2 58.88l-10.24 56.32c-12.8 0-23.04 2.56-35.84 2.56s-23.04 0-35.84-2.56l-10.24-56.32c-5.12-28.16-25.6-51.2-51.2-58.88-12.8-5.12-28.16-10.24-40.96-17.92-10.24-5.12-23.04-7.68-35.84-7.68-15.36 0-30.72 5.12-43.52 12.8l-46.08 33.28c-17.92-15.36-35.84-30.72-48.64-48.64l33.28-46.08c15.36-23.04 17.92-53.76 5.12-79.36-7.68-12.8-12.8-25.6-17.92-40.96-10.24-28.16-30.72-46.08-58.88-51.2l-56.32-10.24c0-12.8-2.56-23.04-2.56-35.84 0-12.8 0-23.04 2.56-35.84l56.32-10.24c28.16-5.12 51.2-25.6 58.88-51.2 5.12-12.8 10.24-28.16 17.92-40.96 12.8-25.6 10.24-56.32-5.12-79.36l-33.28-46.08c15.36-17.92 30.72-35.84 48.64-48.64l46.08 33.28c12.8 10.24 28.16 12.8 43.52 12.8 12.8 0 23.04-2.56 35.84-7.68 12.8-7.68 25.6-12.8 40.96-17.92 28.16-10.24 46.08-30.72 51.2-58.88l10.24-56.32c12.8-2.56 23.04-2.56 35.84-2.56m0-51.2c-20.48 0-40.96 2.56-61.44 5.12-10.24 2.56-20.48 10.24-20.48 20.48l-12.8 76.8c-2.56 10.24-7.68 17.92-17.92 20.48-15.36 5.12-33.28 12.8-48.64 20.48-2.56 2.56-7.68 2.56-12.8 2.56s-10.24-2.56-15.36-5.12l-61.44-43.52c-5.12-2.56-10.24-5.12-15.36-5.12-5.12 0-10.24 2.56-15.36 5.12-33.28 25.6-61.44 53.76-87.04 87.04-7.68 7.68-7.68 20.48 0 30.72l43.52 61.44c5.12 7.68 5.12 17.92 2.56 25.6-7.68 15.36-15.36 30.72-20.48 48.64-2.56 10.24-10.24 15.36-20.48 17.92l-76.8 12.8c-10.24 2.56-20.48 10.24-20.48 20.48-2.56 20.48-5.12 40.96-5.12 61.44s2.56 40.96 5.12 61.44c2.56 10.24 10.24 20.48 20.48 20.48l76.8 12.8c10.24 2.56 17.92 7.68 20.48 17.92 5.12 15.36 12.8 33.28 20.48 48.64 5.12 7.68 5.12 17.92-2.56 25.6l-43.52 61.44c-5.12 10.24-7.68 20.48 0 30.72 25.6 33.28 53.76 61.44 87.04 87.04 5.12 2.56 10.24 5.12 15.36 5.12 5.12 0 10.24-2.56 15.36-5.12l61.44-43.52c5.12-2.56 10.24-5.12 15.36-5.12 5.12 0 7.68 0 12.8 2.56 15.36 7.68 30.72 15.36 48.64 20.48 10.24 2.56 15.36 10.24 17.92 20.48l12.8 76.8c2.56 10.24 10.24 20.48 20.48 20.48 20.48 2.56 40.96 5.12 61.44 5.12s40.96-2.56 61.44-5.12c10.24-2.56 20.48-10.24 20.48-20.48l12.8-76.8c2.56-10.24 7.68-17.92 17.92-20.48 15.36-5.12 33.28-12.8 48.64-20.48 2.56-2.56 7.68-2.56 12.8-2.56s10.24 2.56 15.36 5.12l61.44 43.52c5.12 2.56 10.24 5.12 15.36 5.12 5.12 0 10.24-2.56 15.36-5.12 33.28-25.6 61.44-53.76 87.04-87.04 7.68-7.68 7.68-20.48 0-30.72l-43.52-61.44c-5.12-7.68-5.12-17.92-2.56-25.6 7.68-15.36 15.36-30.72 20.48-48.64 2.56-10.24 10.24-15.36 20.48-17.92l76.8-12.8c10.24-2.56 20.48-10.24 20.48-20.48 2.56-20.48 5.12-40.96 5.12-61.44s-2.56-40.96-5.12-61.44c-2.56-10.24-10.24-20.48-20.48-20.48l-76.8-12.8c-10.24-2.56-17.92-7.68-20.48-17.92-5.12-15.36-12.8-33.28-20.48-48.64-5.12-7.68-5.12-17.92 2.56-25.6l43.52-61.44c5.12-10.24 7.68-20.48 0-30.72-25.6-33.28-53.76-61.44-87.04-87.04-5.12-2.56-10.24-5.12-15.36-5.12-5.12 0-10.24 2.56-15.36 5.12l-61.44 43.52c-5.12 2.56-10.24 5.12-15.36 5.12-5.12 0-7.68 0-12.8-2.56-15.36-7.68-30.72-15.36-48.64-20.48-10.24-2.56-15.36-10.24-17.92-20.48l-12.8-76.8c-2.56-10.24-10.24-20.48-20.48-20.48-20.48-2.56-40.96-5.12-61.44-5.12z" p-id="2552"></path><path d="M512 409.6c56.32 0 102.4 46.08 102.4 102.4s-46.08 102.4-102.4 102.4-102.4-46.08-102.4-102.4 46.08-102.4 102.4-102.4m0-51.2c-84.48 0-153.6 69.12-153.6 153.6s69.12 153.6 153.6 153.6 153.6-69.12 153.6-153.6-69.12-153.6-153.6-153.6z" p-id="2553"></path></svg>